# xmcd
#
# Track frame offsets:
#	150
#	10165
#	21309
#	32153
#	41934
#	52455
#	61531
#	72363
#	81016
#	93812
#	104672
#	114258
#	125583
#	136990
#	148094
#	160058
#	170768
#	179340
#	189278
#	199204
#	209700
#	219819
#	229746
#	242614
#	253210
#
# Disc length: 3487 seconds
# Revision: 4
# Processed by: cddbd v1.5.2PL0 Copyright (c) Steve Scherf et al.
# Submitted via: dBpowerAMP V12.0
#
DISCID=700d9d19
DTITLE=Various Artist - Dizzy Miss Lizzy: The Specialty Story
DYEAR=2013
DGENRE=Rhythm and Blues
TTITLE0=Larry Williams - Dizzy Miss Lizzy
TTITLE1=Don and Dewey - Farmer John
TTITLE2=Little Richard - Tutti Frutti
TTITLE3=Lloyd Price - Forgive Me, Clawdy
TTITLE4=Sam Cooke and The Soul Stirrers - That's All I Need To Know
TTITLE5=Vicky Lee - Goin' Back Home To Mama
TTITLE6=Sonn Knight - My Baby Don't Want Me
TTITLE7=Angel Face - I Know
TTITLE8=John Lee Hooker - Everybody's Blues
TTITLE9=Roddy Jackson - I've Got My Sights On Someone New
TTITLE10=Marvin and Johnny - Ding Dong Baby
TTITLE11=Percy Mayfield - Diggin' The Moonglow
TTITLE12=Jesse Belvin - Gone
TTITLE13=Harper Brinson Band - Harpers Express
TTITLE14=Wynona Carr - Should I Ever Love Again?
TTITLE15=Guitar Slim - I Got Sumpin' For You
TTITLE16=Larry Williams - You Bug Me Baby
TTITLE17=Ernest Kador - Eternity
TTITLE18=Don and Dewey - Jungle Hop
TTITLE19=Joe Liggins and The Honeydrippers - Do You Love Me Pretty Baby?
TTITLE20=Edgar Blanchard - Mr. Bumps
TTITLE21=Earl King - No One But Me
TTITLE22=David Ford and The Ebbtides - My Confession
TTITLE23=Clifton Chenier - Boppin' The Rock
TTITLE24=Big Boy Myles - Who's Been Fooling You
EXTD=
EXTT0=
EXTT1=
EXTT2=
EXTT3=
EXTT4=
EXTT5=
EXTT6=
EXTT7=
EXTT8=
EXTT9=
EXTT10=
EXTT11=
EXTT12=
EXTT13=
EXTT14=
EXTT15=
EXTT16=
EXTT17=
EXTT18=
EXTT19=
EXTT20=
EXTT21=
EXTT22=
EXTT23=
EXTT24=
PLAYORDER=
